<?xml version="1.0" standalone="no"?>
<!DOCTYPE svg PUBLIC "-//W3C//DTD SVG 20010904//EN"
 "http://www.w3.org/TR/2001/REC-SVG-20010904/DTD/svg10.dtd">
<svg version="1.0" xmlns="http://www.w3.org/2000/svg"
 width="280.000000pt" height="280.000000pt" viewBox="0 0 280.000000 280.000000"
 preserveAspectRatio="xMidYMid meet">
<metadata>
Created by potrace 1.11, written by Peter Selinger 2001-2013
</metadata>
<g transform="translate(0.000000,280.000000) scale(0.100000,-0.100000)"
fill="#000000" stroke="none">
<path d="M33 2782 c19 -21 13 -32 -15 -32 -13 0 -18 -8 -18 -31 0 -24 4 -29
18 -25 9 2 53 14 96 26 44 12 94 29 112 38 31 14 36 14 72 -2 22 -10 79 -28
128 -39 82 -21 88 -24 96 -52 4 -16 6 -35 4 -40 -2 -6 -51 -35 -109 -65 -101
-53 -106 -54 -125 -37 -47 43 -136 35 -174 -15 -13 -18 -26 -23 -65 -23 l-48
0 -3 -119 -3 -119 56 5 56 5 116 -136 c64 -75 126 -147 137 -160 l21 -25 -40
24 c-22 13 -75 43 -118 68 -62 35 -93 63 -149 128 -39 46 -72 84 -74 84 -2 0
-4 -49 -4 -108 l0 -108 125 -164 125 -165 -38 -11 c-20 -6 -69 -14 -108 -17
-70 -7 -71 -6 -85 21 -13 25 -14 22 -17 -57 -2 -65 0 -87 11 -93 85 -47 411
-303 479 -375 33 -36 50 -47 57 -40 6 6 11 16 11 22 0 28 -202 201 -409 350
-67 47 -121 90 -121 94 0 5 35 11 78 15 43 3 102 12 131 20 l52 13 88 -121
c48 -66 118 -165 155 -218 37 -54 70 -98 72 -98 16 0 114 76 110 85 -5 15
-185 271 -243 347 l-44 57 53 27 52 26 23 -28 c34 -42 131 -207 158 -267 12
-29 26 -76 30 -106 l7 -53 32 6 c17 4 52 10 78 13 l46 6 7 46 c4 25 31 114 61
196 59 161 90 268 100 347 5 39 12 52 33 62 52 27 66 53 67 123 l0 64 178 177
c172 171 177 175 150 122 -15 -30 -34 -77 -43 -104 -15 -41 -22 -50 -54 -61
-20 -7 -44 -18 -52 -25 -21 -17 -39 -83 -31 -113 10 -41 54 -86 90 -92 29 -6
37 -15 66 -75 l33 -68 -36 -76 c-65 -137 -239 -423 -319 -526 -28 -36 -108
-54 -171 -39 -174 41 -360 -47 -440 -210 -30 -61 -32 -72 -32 -171 0 -93 3
-112 26 -161 120 -256 450 -307 642 -99 116 125 137 310 52 457 -14 23 -25 50
-25 60 1 16 3 15 21 -6 11 -13 24 -31 28 -40 8 -13 29 -2 124 61 129 86 375
214 387 201 4 -4 22 -44 40 -88 17 -44 51 -117 76 -162 l45 -82 -38 -10 c-21
-5 -126 -12 -233 -15 -107 -4 -230 -12 -272 -18 l-78 -11 0 -88 0 -87 37 -7
c71 -13 249 -76 393 -139 251 -111 308 -120 727 -121 l333 0 0 62 c0 60 -1 63
-27 69 -96 21 -101 24 -96 44 7 25 4 25 63 -5 27 -14 52 -25 55 -25 9 0 5 129
-5 135 -18 11 -141 193 -207 308 -73 126 -186 347 -177 347 6 0 180 -91 280
-146 43 -24 67 -45 85 -76 l24 -43 3 134 3 134 -81 75 c-93 85 -92 92 13 92
65 0 67 1 67 25 l0 25 -103 -6 -103 -7 -18 27 c-10 15 -16 30 -14 32 6 5 164
-14 206 -26 l32 -8 0 337 c0 249 -3 340 -12 349 -9 9 -9 12 0 12 7 0 12 9 12
20 0 16 -5 19 -28 14 -23 -5 -38 3 -89 48 -53 46 -133 161 -121 173 2 2 37 -4
78 -15 122 -30 160 -34 160 -17 0 10 -29 21 -97 37 -131 29 -173 42 -173 51 0
8 98 47 141 56 16 3 42 -3 67 -16 55 -28 62 -27 62 14 l0 35 -519 0 c-515 0
-518 0 -546 -21 -22 -18 -29 -20 -36 -8 -5 8 -9 17 -9 22 0 4 -21 7 -46 7 -51
0 -50 1 -23 -68 13 -31 13 -33 -26 -64 -90 -74 -262 -237 -372 -354 -101 -106
-121 -124 -142 -119 -34 9 -87 -12 -116 -46 -38 -46 -35 -111 8 -153 17 -18
38 -35 44 -37 20 -6 -21 -181 -80 -345 -28 -79 -52 -142 -53 -141 -8 7 -75
527 -71 547 3 14 55 174 116 355 62 182 118 351 126 378 l14 47 -33 0 -33 0
-103 -315 c-57 -173 -107 -315 -110 -315 -5 0 -30 160 -63 392 l-10 77 66 78
67 78 -36 3 c-28 3 -43 -3 -63 -22 -35 -34 -61 -34 -61 -1 l0 25 -100 0 -100
0 0 -31 c0 -29 -1 -30 -32 -24 -56 11 -138 38 -144 46 -3 5 -71 9 -151 9 -141
0 -146 -1 -130 -18z m1948 -121 c-29 -150 -105 -381 -125 -381 -2 0 -14 16
-26 35 l-22 35 32 77 c35 89 154 342 158 338 1 -1 -6 -48 -17 -104z m-194 -10
c-30 -63 -43 -83 -45 -68 -6 34 18 100 46 130 14 15 29 27 33 27 4 0 -11 -40
-34 -89z m673 -72 c17 -33 30 -61 28 -63 -50 -30 -56 -30 -103 8 -25 21 -45
41 -45 46 0 9 70 70 81 70 3 0 21 -27 39 -61z m-800 -57 c-1 -114 -20 -240
-56 -357 -46 -153 -49 -158 -64 -120 -9 24 -8 36 4 63 9 18 16 51 16 73 0 34
-6 47 -36 77 -35 35 -36 37 -24 76 24 80 133 261 151 250 5 -3 9 -31 9 -62z
m-1185 -101 l-87 -121 -45 0 c-53 0 -63 17 -34 59 12 16 21 42 21 58 0 27 8
33 108 84 59 30 111 51 116 48 4 -4 -31 -62 -79 -128z m1882 69 c46 -42 49
-47 41 -77 -6 -23 -4 -43 7 -70 l16 -37 -55 -55 c-31 -30 -57 -53 -60 -51 -2
3 -22 63 -45 135 l-40 130 36 38 c21 20 40 36 44 35 3 -2 28 -23 56 -48z
m-1753 -165 c8 -55 25 -167 36 -250 l20 -150 -47 -42 c-27 -24 -55 -42 -63
-40 -7 1 -41 54 -74 117 l-59 115 26 39 c30 44 34 78 12 120 -15 28 -14 30 52
123 43 60 69 89 73 81 4 -7 15 -58 24 -113z m2176 -29 c-1 -21 -1 -21 -16 -1
-9 11 -22 34 -31 50 l-15 30 31 -29 c17 -17 31 -39 31 -50z m-666 -122 c16
-132 17 -158 5 -168 -8 -7 -37 -34 -65 -59 l-50 -46 0 57 c1 46 5 60 23 75 49
40 51 129 3 172 -11 10 -20 22 -20 26 0 9 72 97 80 98 3 1 14 -69 24 -155z
m-1892 136 c31 0 39 -33 19 -74 l-19 -36 -41 47 c-31 37 -37 50 -29 61 7 7 21
11 32 8 12 -3 29 -6 38 -6z m2008 -195 c-7 -8 -16 -15 -20 -15 -7 0 -31 148
-29 185 0 11 14 -20 31 -68 24 -70 27 -91 18 -102z m436 76 c-13 -16 -252
-201 -260 -201 -7 0 -60 105 -71 139 -6 20 2 33 55 86 60 61 63 62 89 49 36
-19 70 -17 111 5 l35 19 26 -42 c20 -31 24 -44 15 -55z m-864 47 c14 -22 12
-29 -39 -111 -30 -49 -57 -86 -59 -84 -6 6 68 217 76 217 4 0 14 -10 22 -22z
m495 -229 c18 -39 30 -75 27 -80 -9 -15 -94 -71 -95 -62 0 4 -4 44 -9 88 -7
74 -7 82 13 103 11 12 23 22 26 22 3 -1 21 -33 38 -71z m428 -27 c-60 -56
-163 -127 -171 -119 -3 2 44 50 103 106 91 86 109 99 117 84 7 -13 -3 -28 -49
-71z m-2354 56 c11 -21 11 -22 -4 -9 -10 7 -17 17 -17 22 0 15 9 10 21 -13z
m1567 -36 c29 -4 32 -7 32 -41 -1 -56 -33 -117 -73 -136 -19 -9 -45 -27 -58
-41 -12 -13 -27 -24 -32 -24 -5 0 -6 33 -2 82 6 68 13 90 39 130 22 33 36 46
46 41 8 -3 30 -8 48 -11z m211 -154 l1 -27 -41 14 c-23 8 -53 15 -67 15 -25 0
-22 4 33 60 l60 61 7 -48 c3 -26 7 -60 7 -75z m-1783 31 c68 -45 124 -83 124
-85 0 -2 -22 -15 -48 -28 l-48 -25 -82 110 c-45 60 -79 109 -76 109 3 0 62
-37 130 -81z m1995 -50 c-13 -10 -30 -19 -39 -19 -10 0 -2 10 18 24 40 28 57
24 21 -5z m-1672 -115 c10 -66 18 -120 17 -121 -3 -4 -116 179 -116 186 1 8
72 62 77 57 2 -2 12 -57 22 -122z m1351 37 c-19 -11 -110 -24 -110 -16 0 11
45 24 85 24 27 0 35 -2 25 -8z m439 -52 c11 -18 11 -23 -1 -30 -23 -15 -46
-10 -53 11 -13 41 30 57 54 19z m-829 -19 c0 -5 -5 -10 -11 -10 -5 0 -7 5 -4
10 3 6 8 10 11 10 2 0 4 -4 4 -10z m912 -92 c18 -26 82 -130 115 -190 11 -21
-270 112 -301 143 -14 13 41 67 73 72 73 11 88 8 113 -25z m-452 0 c23 -9 17
-13 -65 -43 -49 -18 -112 -43 -139 -54 -45 -20 -79 -20 -46 -1 8 5 49 34 90
64 79 57 92 60 160 34z m-241 9 c-2 -1 -12 -9 -21 -16 -15 -12 -18 -11 -18 3
0 10 8 16 22 16 12 0 19 -1 17 -3z m-150 -74 c10 -20 4 -27 -86 -89 -240 -165
-230 -159 -198 -126 34 34 269 242 271 239 1 -1 6 -12 13 -24z m565 -73 c9
-36 45 -150 80 -255 35 -104 63 -191 62 -192 -1 -1 -64 39 -139 89 l-137 91 5
46 c5 34 1 55 -13 83 -19 37 -19 37 1 70 38 63 109 150 117 141 4 -4 15 -37
24 -73z m223 -283 c31 -56 84 -145 118 -197 l62 -96 -32 1 c-35 0 -141 60
-148 84 -3 9 -24 70 -47 136 -48 136 -130 395 -130 410 0 6 27 -45 60 -113 33
-68 85 -169 117 -225z m-427 324 c0 -5 -6 -14 -14 -20 -8 -6 -19 -25 -26 -41
-8 -19 -20 -30 -32 -30 -10 0 -34 -6 -52 -14 -32 -13 -35 -13 -57 10 -12 13
-21 25 -18 27 7 5 183 75 192 76 4 1 7 -3 7 -8z m680 -110 c0 -28 -6 -23 -36
32 l-15 28 25 -17 c17 -11 26 -25 26 -43z m-462 -351 c119 -77 164 -112 171
-132 5 -15 6 -30 1 -33 -13 -8 -237 59 -257 78 -23 20 -67 37 -99 37 -33 0
-48 36 -40 94 7 43 27 69 51 63 6 -1 84 -49 173 -107z m-410 -164 c91 -14 111
-20 100 -31 -5 -5 -296 29 -338 39 -45 11 159 4 238 -8z m-41 -105 c110 -16
210 -34 221 -40 12 -6 40 -11 65 -11 50 0 283 -44 342 -64 22 -8 63 -18 90
-22 48 -8 46 -8 -55 -18 -224 -21 -426 -6 -575 41 -27 8 -101 38 -163 65 -62
27 -130 56 -150 63 l-37 14 30 0 c17 0 121 -12 232 -28z m430 23 c-3 -3 -12
-4 -19 -1 -8 3 -5 6 6 6 11 1 17 -2 13 -5z"/>
<path d="M1473 2793 c9 -2 25 -2 35 0 9 3 1 5 -18 5 -19 0 -27 -2 -17 -5z"/>
<path d="M0 1164 c0 -67 1 -69 43 -112 l42 -44 -42 5 -43 5 0 -154 c0 -149 1
-154 21 -154 27 0 79 53 79 80 0 15 5 20 15 16 8 -3 73 -17 145 -31 126 -24
241 -33 239 -17 0 4 -6 38 -13 77 l-12 69 -66 11 c-58 9 -73 17 -138 70 -40
33 -117 102 -172 153 l-98 94 0 -68z"/>
<path d="M500 725 c0 -8 4 -15 10 -15 5 0 7 7 4 15 -4 8 -8 15 -10 15 -2 0 -4
-7 -4 -15z"/>
<path d="M1244 654 c-17 -31 -17 -36 -4 -44 8 -4 110 -74 225 -154 388 -269
449 -308 599 -382 l149 -74 293 0 294 0 0 30 c0 35 6 34 -131 16 -230 -31
-259 -31 -346 2 -239 93 -335 148 -734 423 -175 121 -319 219 -321 219 -3 0
-13 -16 -24 -36z"/>
<path d="M489 627 c-63 -48 -266 -183 -386 -256 l-103 -63 0 -74 c0 -41 3 -74
6 -74 3 0 15 5 27 11 19 10 18 7 -5 -18 -24 -25 -28 -37 -28 -91 l0 -62 141 0
c115 0 139 2 131 13 -14 16 66 186 152 325 44 71 73 105 126 147 38 30 72 59
75 65 6 9 -73 110 -86 110 -3 0 -26 -15 -50 -33z"/>
<path d="M1022 495 c-34 -12 -64 -24 -67 -26 -2 -3 15 -86 39 -184 24 -99 47
-196 51 -215 14 -71 12 -70 70 -70 l54 0 3 56 3 56 30 -54 c30 -51 32 -53 78
-56 26 -2 47 0 47 3 0 3 -16 38 -36 77 -29 58 -32 69 -16 57 11 -7 61 -42 112
-77 l91 -62 192 1 c187 1 190 1 122 14 -90 16 -203 68 -328 152 -109 72 -173
131 -286 266 -40 48 -78 86 -85 86 -6 -1 -39 -12 -74 -24z"/>
<path d="M850 434 c0 -26 -8 -42 -29 -62 -37 -35 -51 -63 -51 -102 0 -44 56
-100 99 -100 78 0 133 68 111 136 -6 18 -23 43 -38 54 -22 18 -26 28 -23 65
l3 45 -36 0 c-35 0 -36 -1 -36 -36z"/>
</g>
</svg>
